<svg xmlns="http://www.w3.org/2000/svg" version="1.1" xmlns:xlink="http://www.w3.org/1999/xlink" xmlns:svgjs="http://svgjs.dev/svgjs" width="2560" height="1440" preserveAspectRatio="none" viewBox="0 0 2560 1440"><g mask="url(&quot;#SvgjsMask7268&quot;)" fill="none"><rect width="2560" height="1440" x="0" y="0" fill="url(&quot;#SvgjsLinearGradient7269&quot;)"></rect><path d="M2560 0L1450.45 0L2560 323.18z" fill="rgba(255, 255, 255, .1)"></path><path d="M1450.45 0L2560 323.18L2560 535.11L1423.71 0z" fill="rgba(255, 255, 255, .075)"></path><path d="M1423.71 0L2560 535.11L2560 1027.12L886.0400000000001 0z" fill="rgba(255, 255, 255, .05)"></path><path d="M886.04 0L2560 1027.12L2560 1214.4499999999998L526.7 0z" fill="rgba(255, 255, 255, .025)"></path><path d="M0 1440L1117.43 1440L0 725.63z" fill="rgba(0, 0, 0, .1)"></path><path d="M0 725.63L1117.43 1440L1544.33 1440L0 641.34z" fill="rgba(0, 0, 0, .075)"></path><path d="M0 641.34L1544.33 1440L2132.4 1440L0 549.45z" fill="rgba(0, 0, 0, .05)"></path><path d="M0 549.45L2132.4 1440L2188.96 1440L0 185.35000000000002z" fill="rgba(0, 0, 0, .025)"></path></g><defs><mask id="SvgjsMask7268"><rect width="2560" height="1440" fill="#ffffff"></rect></mask><linearGradient x1="50%" y1="0%" x2="50%" y2="100%" gradientUnits="userSpaceOnUse" id="SvgjsLinearGradient7269"><stop stop-color="rgba(0, 87, 79, 1)" offset="0"></stop><stop stop-color="rgba(4, 24, 6, 1)" offset="1"></stop></linearGradient></defs></svg>